<svg xmlns="http://www.w3.org/2000/svg" viewBox="300 300 1400 1400" fill="#ffffff">
<g transform="translate(0.000000,2000.000000) scale(0.100000,-0.100000)">
<path d="M5128 16660 c108 -45 209 -89 232 -100 8 -4 65 -27 125 -50 61 -24
175 -70 255 -103 80 -32 159 -64 175 -69 17 -6 75 -30 130 -53 55 -24 174 -73
265 -110 91 -36 179 -73 197 -81 17 -7 34 -14 37 -14 3 0 25 -9 49 -19 23 -10
105 -45 182 -76 77 -31 158 -65 180 -74 22 -10 74 -32 115 -49 41 -17 145 -60
230 -96 85 -35 218 -90 295 -121 77 -32 143 -59 148 -62 4 -2 -26 -25 -66 -51
-40 -26 -82 -53 -93 -60 -10 -7 -32 -20 -47 -30 -16 -9 -83 -53 -150 -96 -67
-43 -150 -95 -185 -115 -84 -48 -74 -41 -267 -169 -93 -62 -175 -112 -181
-112 -7 0 -196 185 -421 410 -492 495 -1233 1244 -1233 1247 0 1 -21 22 -47
47 -27 25 -42 46 -35 46 7 0 57 -18 110 -40z"/>
<path d="M14944 16648 c-62 -66 -764 -777
-1284 -1300 -217 -219 -401 -398 -409 -398 -8 0 -77 42 -155 93 -193 128 -574
369 -688 435 -31 18 -62 40 -68 47 -7 8 -18 15 -24 15 -6 0 -22 9 -36 20 -21
17 -23 21 -10 30 8 6 26 13 40 17 14 3 48 16 75 28 28 12 77 32 110 44 33 12
74 28 90 35 17 8 91 39 165 71 74 31 144 60 155 65 11 5 70 29 130 54 346 140
462 188 480 196 11 5 45 19 75 31 30 11 69 27 85 34 17 7 93 39 170 70 77 32
154 63 170 71 31 14 107 45 345 138 150 59 290 117 485 200 72 30 134 55 139
56 5 0 -13 -24 -40 -52z"/>
<path d="M9868 13962 c1 -1015 -2 -1832 -6 -1832 -5 0 -17 19
-28 43 -16 35 -235 451 -356 677 -20 36 -88 169 -153 295 -64 127 -120 235
-125 240 -8 12 -116 218 -229 440 -199 390 -241 471 -251 485 -5 8 -26 47 -45
85 -19 39 -50 98 -69 133 -19 34 -32 62 -29 62 4 0 -2 8 -11 19 -9 10 -36 61
-59 112 -23 52 -47 101 -52 109 -16 25 -54 97 -244 462 -79 152 -81 158 -59
162 30 6 501 95 598 112 41 8 93 18 115 23 95 21 300 64 650 136 149 30 284
59 300 64 17 5 35 8 40 7 7 -2 11 -624 13 -1834z"/>
<path d="M10290 15766 c41 -8 118 -25
170 -36 52 -12 140 -30 195 -40 55 -10 154 -30 220 -44 250 -52 464 -95 575
-116 228 -43 413 -80 417 -84 4 -4 -102 -222 -117 -241 -4 -5 -39 -71 -76
-145 -37 -74 -70 -137 -73 -140 -6 -5 -31 -53 -110 -210 -18 -36 -37 -72 -41
-80 -11 -20 -79 -150 -170 -325 -40 -77 -86 -164 -102 -193 -16 -29 -71 -137
-123 -240 -52 -103 -114 -223 -138 -267 -104 -193 -167 -314 -272 -520 -136
-267 -164 -319 -292 -555 -56 -102 -125 -233 -154 -292 -30 -60 -57 -108 -61
-108 -9 0 -11 3653 -3 3662 6 5 16 3 155 -26z"/>
<path d="M7918 15309 c42 -88 196 -374
204 -377 4 -2 8 -8 8 -13 0 -10 111 -236 139 -284 26 -44 148 -279 282 -542
65 -128 133 -259 151 -290 37 -67 116 -218 216 -414 38 -75 85 -165 105 -200
19 -35 67 -127 107 -204 40 -77 119 -228 175 -335 109 -206 263 -510 259 -510
-2 0 -567 562 -1256 1249 -689 687 -1282 1276 -1318 1310 l-65 61 25 20 c14
11 29 20 33 20 4 0 38 20 75 43 37 24 90 57 117 72 28 16 113 70 191 121 78
51 174 112 215 137 41 25 126 77 189 116 63 39 117 70 120 70 3 0 16 -22 28
-50z"/>
<path d="M12163 15337 c21 -12 77 -47 125 -78 48 -31 143 -91 212 -134 69 -43 166
-106 216 -139 50 -34 104 -68 120 -78 54 -31 202 -124 219 -138 14 -12 -86
-115 -889 -914 -498 -496 -1087 -1082 -1309 -1303 -222 -222 -407 -403 -410
-403 -6 0 185 382 202 405 5 6 42 75 83 155 41 80 103 199 138 265 35 66 101
194 148 285 117 230 210 408 237 455 12 22 67 128 123 235 152 296 230 446
282 545 26 50 76 144 110 210 34 66 84 161 110 210 26 50 79 151 118 225 90
174 116 220 122 220 3 0 22 -10 43 -23z"/>
<path d="M6664 14300 c14 -190 31 -380 56
-640 11 -121 21 -230 56 -640 13 -162 29 -342 34 -400 5 -58 16 -193 25 -300
9 -107 25 -287 35 -400 24 -248 44 -488 65 -755 8 -110 18 -235 21 -277 3 -43
2 -78 -2 -78 -5 0 -25 15 -45 33 -107 96 -169 149 -195 169 -16 12 -60 52 -99
89 -38 36 -90 84 -115 105 -25 21 -47 41 -50 44 -6 7 -222 198 -303 269 -34
29 -82 72 -107 95 -25 23 -139 125 -255 226 -115 101 -246 216 -290 254 -44
39 -107 95 -141 126 -33 30 -86 77 -118 104 -51 43 -56 50 -43 65 8 9 29 43
47 76 18 33 61 103 95 155 88 134 176 270 290 450 54 85 120 188 147 228 26
41 48 78 48 83 0 5 4 9 8 9 5 0 16 15 25 33 10 17 25 44 35 58 47 70 91 139
183 284 24 39 47 72 51 73 5 2 8 10 8 17 0 7 11 27 25 43 14 17 25 33 25 37 0
4 22 39 49 78 27 40 70 106 96 147 27 41 66 101 87 133 21 32 38 63 38 68 0 5
4 9 8 9 5 0 16 15 25 33 10 17 25 44 35 58 9 15 40 64 67 110 l50 83 7 -75 c3
-41 14 -166 22 -279z"/>
<path d="M13395 14609 c11 -17 27 -42 35 -54 13 -20 119 -192 153
-249 7 -11 16 -25 20 -30 4 -6 50 -76 102 -156 52 -80 99 -150 104 -157 6 -7
11 -15 11 -19 0 -3 27 -46 60 -96 33 -49 60 -91 60 -93 0 -4 94 -148 159 -244
14 -20 34 -52 45 -72 27 -48 288 -457 435 -682 64 -98 139 -216 167 -262 29
-47 58 -92 65 -101 17 -20 0 -37 -401 -386 -194 -168 -427 -374 -505 -444 -44
-40 -129 -116 -190 -170 -60 -53 -209 -185 -329 -293 -121 -108 -245 -218
-275 -244 l-56 -48 -4 33 c-5 53 39 650 89 1183 6 61 26 304 45 540 42 524 66
798 110 1280 34 361 65 738 65 776 0 28 13 23 35 -12z"/>
<path d="M8525 12860 c445 -445
807 -811 804 -814 -5 -5 -399 -56 -747 -96 -97 -12 -350 -41 -562 -65 -212
-25 -397 -47 -412 -50 -27 -4 -28 -3 -28 40 0 25 11 199 25 388 13 188 31 446
40 572 8 127 17 259 20 295 2 36 9 137 15 225 5 88 12 189 15 225 2 36 5 71 5
78 0 6 3 12 8 12 4 0 371 -364 817 -810z"/>
<path d="M11310 13580 c0 -77 23 -440 70 -1125
27 -383 40 -607 36 -614 -3 -4 -49 -1 -103 6 -54 7 -215 26 -358 43 -514 59
-777 90 -883 104 -59 8 -154 20 -212 26 -58 7 -125 15 -150 19 l-45 7 810 811
c446 445 816 811 823 811 9 2 12 -22 12 -88z"/>
<path d="M9810 11678 c-6 -7 -42 -60 -80
-118 -39 -58 -156 -234 -261 -391 l-191 -286 -62 -7 c-64 -6 -335 -43 -746
-102 -135 -19 -294 -41 -355 -49 -60 -8 -211 -27 -335 -44 -323 -43 -371 -48
-363 -40 7 5 223 100 433 189 40 17 277 122 387 171 23 11 44 19 47 19 2 0 33
13 68 29 70 32 219 98 288 129 25 11 81 37 125 57 44 20 157 70 250 110 170
73 323 140 550 239 254 112 264 116 245 94z"/>
<path d="M10252 11669 c29 -11 127 -53 218 -94
91 -40 215 -94 275 -120 323 -140 573 -248 675 -295 63 -28 187 -83 275 -122
221 -97 228 -100 338 -152 54 -25 100 -46 102 -46 3 0 71 -30 152 -66 82 -36
184 -80 228 -97 96 -38 81 -43 -75 -23 -63 8 -204 26 -314 40 -109 14 -260 35
-335 47 -248 37 -939 132 -1041 142 -23 2 -77 74 -200 267 -15 25 -49 74 -74
110 -26 36 -94 137 -153 225 -58 88 -115 170 -126 183 -25 27 -13 28 55 1z"/>
<path d="M10329 11056 c80 -120 153 -229 161 -242 17 -26 17 -26 -124 -289 -42 -77 -127
-241 -190 -365 -63 -124 -127 -249 -143 -277 l-29 -53 -41 78 c-23 42 -73 140
-113 216 -40 77 -76 147 -81 155 -63 116 -269 511 -269 516 0 4 19 32 43 63
42 56 136 199 349 526 l110 169 91 -139 c50 -76 156 -237 236 -358z"/>
<path d="M7235 10333 c22 -31 58 -78 80 -103 22 -26 99 -116 170 -200 72 -85 148 -175 170
-200 22 -26 90 -109 150 -185 61 -76 133 -164 161 -194 28 -31 66 -76 85 -102
19 -25 55 -70 81 -100 142 -165 305 -359 393 -467 155 -190 159 -195 474 -571
309 -370 386 -463 451 -546 22 -27 76 -93 120 -145 145 -170 250 -298 250
-305 0 -4 -41 -50 -92 -103 -130 -137 -317 -332 -413 -432 -45 -47 -178 -186
-295 -310 -257 -270 -767 -805 -902 -945 -53 -55 -98 -98 -101 -95 -3 3 -19
91 -37 195 -18 105 -39 226 -46 270 -8 44 -30 184 -49 310 -20 127 -45 280
-56 340 -34 186 -68 391 -99 600 -17 110 -44 277 -60 370 -49 274 -77 440
-100 595 -12 80 -31 195 -41 255 -11 61 -29 162 -40 225 -10 63 -26 153 -34
200 -8 47 -22 132 -30 190 -23 149 -50 314 -79 470 -22 125 -59 351 -72 445
-5 41 -30 196 -64 405 -27 168 -29 190 -22 190 4 -1 25 -26 47 -57z"/>
<path d="M12815 10363 c-6 -34 -80 -508 -101 -648 -9 -55 -36 -219 -61 -365 -46 -269 -71 -423 -98
-608 -9 -57 -27 -165 -41 -240 -22 -126 -86 -507 -134 -797 -10 -66 -35 -212
-54 -325 -20 -113 -47 -285 -61 -382 -14 -98 -37 -242 -51 -320 -34 -195 -101
-587 -114 -673 -6 -38 -17 -106 -25 -150 -8 -44 -31 -179 -51 -300 -20 -121
-38 -222 -40 -225 -3 -2 -22 14 -43 35 -134 140 -307 322 -370 390 -41 44
-131 139 -200 210 -69 72 -180 187 -245 255 -66 69 -174 181 -240 250 -297
308 -682 714 -694 732 -14 19 -5 33 118 174 50 57 73 86 90 110 8 12 39 48 67
81 29 33 67 78 85 101 73 90 202 247 208 252 7 5 262 311 379 454 31 38 74 89
96 115 23 25 61 71 85 101 25 30 47 57 50 60 3 3 37 43 75 90 38 47 85 103
105 125 19 23 71 85 115 140 44 54 85 103 90 109 6 6 36 43 68 81 31 39 86
106 123 150 36 44 91 112 122 150 51 63 153 184 525 628 64 76 137 167 164
202 26 35 51 64 55 65 4 0 5 -12 3 -27z"/>
<path d="M6930 10319 c0 -16 4 -49 9 -72 5 -23
15 -76 21 -117 11 -81 62 -387 111 -670 17 -96 41 -242 54 -325 13 -82 31
-188 39 -235 8 -47 28 -164 45 -260 17 -96 44 -267 61 -380 16 -113 43 -284
60 -380 16 -96 48 -290 70 -430 23 -140 54 -331 71 -425 16 -93 48 -280 70
-415 127 -774 180 -1083 185 -1091 3 -5 1 -9 -4 -9 -10 0 -34 33 -287 385 -91
127 -181 250 -199 275 -54 74 -267 368 -336 465 -35 50 -107 149 -160 220 -53
72 -116 157 -139 190 -70 100 -164 231 -339 468 -73 101 -178 247 -237 332
-52 75 -165 230 -250 344 -27 37 -72 98 -98 136 -26 39 -70 101 -97 140 -28
38 -50 75 -50 81 0 10 72 112 88 123 4 4 20 24 37 46 16 22 101 132 190 245
88 112 180 232 205 266 62 85 145 193 226 295 38 48 118 151 179 230 92 121
160 209 204 265 40 51 106 136 174 227 44 59 84 107 89 107 4 0 8 -14 8 -31z"/>
<path d="M13144 10278 c54 -72 115 -152 227 -298 32 -41 114 -147 181 -236 68 -88 153
-198 190 -245 82 -103 142 -180 255 -329 87 -115 236 -307 348 -449 33 -42 77
-100 98 -129 l37 -52 -97 -135 c-54 -74 -170 -234 -258 -356 -307 -425 -365
-505 -452 -623 -48 -66 -117 -161 -153 -212 -36 -51 -114 -162 -175 -245 -60
-84 -132 -185 -160 -224 -27 -39 -62 -86 -77 -105 -41 -53 -273 -373 -405
-560 -64 -91 -155 -217 -202 -281 -47 -64 -116 -158 -153 -210 -38 -52 -68
-87 -68 -78 0 9 25 164 56 345 30 181 60 358 65 394 14 99 76 472 114 685 18
105 41 240 50 300 9 61 32 205 52 320 51 312 96 583 152 935 28 173 65 394 81
490 17 96 37 222 46 280 8 58 37 229 64 380 27 151 58 336 70 410 12 74 25
157 31 183 5 26 9 64 9 82 0 19 4 35 10 35 5 0 34 -33 64 -72z"/>
<path d="M10425 6585 c153 -159 358 -371 454 -470 212 -217 384 -395 632 -655 334 -350 354 -372
354 -386 0 -12 -275 -294 -1269 -1299 l-465 -470 -1 1795 c0 986 4 1790 8
1785 5 -6 134 -140 287 -300z"/>
<path d="M9870 5093 l-1 -1788 -296 300 c-162 165 -523
531 -802 814 -278 282 -518 525 -532 540 -15 14 -45 47 -69 73 -35 40 -40 50
-29 61 8 8 93 97 189 198 96 101 234 245 306 319 72 74 189 196 260 270 71 74
199 206 284 293 85 87 182 187 215 222 194 208 461 484 468 485 4 0 7 -804 7
-1787z"/>
</g>
</svg>
